<?xml version="1.0" encoding="UTF-8" standalone="no"?>
<svg width="60px" height="35px" viewBox="0 0 60 35" version="1.1" xmlns="http://www.w3.org/2000/svg" xmlns:xlink="http://www.w3.org/1999/xlink" xmlns:sketch="http://www.bohemiancoding.com/sketch/ns">
    <title>Slice 1</title>
    <description>Created with Sketch (http://www.bohemiancoding.com/sketch)</description>
    <defs></defs>
    <g id="Page-1" stroke="none" stroke-width="1" fill="none" fill-rule="evenodd" sketch:type="MSPage">
        <path d="M30.182,10.185 L0.232,0 L0.232,34.576 L30.276,24.359 L60,34.467 L60,0 L30.182,10.185 L30.182,10.185 Z" id="Shape" fill="#000000" sketch:type="MSShapeGroup"></path>
        <g id="Group" sketch:type="MSLayerGroup" transform="translate(4.000000, 14.000000)" fill="#FFFFFF">
            <path d="M0.01,0 L3.833,0 L3.489,0.861 L1,0.861 L1,2.652 L3.447,2.652 L3.447,3.714 L1,3.714 L1,7 L0.01,7 L0.01,0 L0.01,0 Z" id="Shape" sketch:type="MSShapeGroup"></path>
            <path d="M5.01,0 L8.801,0 L8.456,0.861 L6,0.861 L6,2.652 L8.456,2.652 L8.456,3.714 L6,3.714 L6,5.6 L8.811,5.6 L8.811,6.896 L5.01,6.896 L5.01,0 L5.01,0 Z" id="Shape" sketch:type="MSShapeGroup"></path>
            <path d="M10.541,5.215 C10.947,5.496 11.729,5.976 12.354,5.976 C12.926,5.976 13.238,5.497 13.238,4.903 C13.238,3.559 10.27,3.725 10.27,1.632 C10.27,0.622 11.072,-0.063 12.498,-0.063 C13.207,-0.063 13.802,-0.107 14.176,0.081 L14.176,1.227 C13.635,0.946 13.083,0.789 12.541,0.789 C12.062,0.789 11.603,0.977 11.603,1.528 C11.603,2.788 14.572,2.622 14.572,4.799 C14.572,6.018 13.53,7 12.123,7 C11.322,7 10.572,6.537 10.051,6.173 L10.541,5.215 L10.541,5.215 Z" id="Shape" sketch:type="MSShapeGroup"></path>
            <path d="M15.623,0.861 L15.623,-1.77635684e-15 L21.049,-1.77635684e-15 L20.705,0.861 L18.872,0.861 L18.872,6.895 L18,6.895 L18,0.861 L15.623,0.861 L15.623,0.861 Z" id="Shape" sketch:type="MSShapeGroup"></path>
            <path d="M23.505,-0.032 L24.505,-0.032 L27.264,6.896 L25.91,6.896 L25.244,4.944 L22.797,4.944 L22.151,6.896 L20.849,6.896 L23.505,-0.032 L23.505,-0.032 Z M24.858,3.924 L24.379,2.559 C24.192,2.038 24.098,1.727 24.035,1.497 L24.015,1.497 C23.952,1.737 23.847,2.039 23.66,2.571 L23.16,3.925 L24.858,3.925 L24.858,3.924 Z" id="Shape" sketch:type="MSShapeGroup"></path>
            <path d="M33.971,6.215 C33.347,6.527 32.429,6.999 31.472,6.999 C29.222,6.999 27.889,5.32 27.889,3.35 C27.889,1.268 29.079,-0.054 31.361,-0.054 C32.431,-0.054 33.121,-0.032 33.406,0.145 L33.406,1.166 C33.031,0.896 32.492,0.789 31.752,0.789 C30.098,0.789 29.222,1.809 29.222,3.268 C29.222,4.747 30.086,5.715 31.566,5.715 C32.024,5.715 32.44,5.632 32.712,5.507 L32.712,3.329 L33.972,3.329 L33.972,6.215 L33.971,6.215 Z" id="Shape" sketch:type="MSShapeGroup"></path>
            <path d="M35.555,0 L39.346,0 L39.002,0.861 L36.804,0.861 L36.804,2.652 L39.002,2.652 L39.002,3.714 L36.804,3.714 L36.804,5.6 L39.356,5.6 L39.356,6.896 L35.555,6.896 L35.555,0 L35.555,0 Z" id="Shape" sketch:type="MSShapeGroup"></path>
            <path d="M45.782,6.896 L42.803,2.747 C42.502,2.362 42.262,2.018 42.033,1.706 L42.012,1.706 C42.033,1.977 42.033,2.372 42.033,2.768 L42.033,6.896 L40.783,6.896 L40.783,0 L42.021,0 L44.897,3.56 C45.198,3.966 45.448,4.299 45.656,4.622 L45.677,4.622 C45.665,4.257 45.656,3.841 45.656,3.466 L45.656,0 L46.918,0 L46.918,6.896 L45.782,6.896 L45.782,6.896 Z" id="Shape" sketch:type="MSShapeGroup"></path>
            <path d="M49.896,0.861 L47.896,0.861 L47.896,-1.77635684e-15 L53.322,-1.77635684e-15 L52.978,0.861 L51.146,0.861 L51.146,6.895 L49.896,6.895 L49.896,0.861 L49.896,0.861 Z" id="Shape" sketch:type="MSShapeGroup"></path>
        </g>
    </g>
</svg>